<?xml version="1.0" encoding="UTF-8"?>
<svg id="Layer_2" data-name="Layer 2" xmlns="http://www.w3.org/2000/svg" viewBox="0 0 1200 111.25">
  <defs>
    <style>
      .cls-1 {
        fill: #fff;
      }
    </style>
  </defs>
  <g id="Logos">
    <path class="cls-1" d="M911.99,111.25c-32.17,0-56.42-23.93-56.42-55.62S879.82,0,911.99,0h60.85c32.17,0,56.42,23.93,56.42,55.62s-24.25,55.62-56.42,55.62h-60.85ZM968.09,77.97c12.84,0,22.5-9.51,22.5-22.35s-9.67-22.35-22.5-22.35h-51.35c-12.84,0-22.5,9.51-22.5,22.35s9.67,22.35,22.5,22.35h51.35ZM285.42,74.78l36.48,29.02v7.45h-44.9l-41.84-33.28h-29.95v33.28h-38.51V0h118.06C305.42,0,322.16,16.74,322.16,37.4s-16.39,37.03-36.75,37.38ZM283.5,39.14c0-5.34-4.33-9.67-9.67-9.67h-68.62v19.33h68.62c5.34,0,9.67-4.33,9.67-9.67ZM383.2,86.05l-12.02,25.2h-38.83v-7.45L381.87,0h77.52l49.51,103.8v7.45h-38.83l-12.02-25.2h-74.85ZM444.08,54.36l-10.66-22.34h-25.59l-10.66,22.34h46.91ZM745.56,33.28h-64.18V0h166.87v33.28h-64.18v77.97h-38.51V33.28ZM1038.67,0v111.25h37.08V33.45l70.05,77.79h54.2V0h-37.08v77.97L1092.71,0h-54.04ZM519.36,111.25h38.51v-27.26h90.17v-32.96h-90.17v-17.75h114.1V0h-152.61v111.25ZM69.51,77.97l41.84,33.28h44.9v-7.45l-60.57-48.18L156.24,7.45V0h-44.9L38.51,57.94V0H0v111.25h38.51v-33.28h31Z"/>
  </g>
</svg>